<svg width="34" height="30" viewBox="0 0 34 30" fill="none" xmlns="http://www.w3.org/2000/svg">
<path d="M27.3734 17.0849V13.7221H31.9472V12.3539H31.9336V12.3486H27.3734V7.29677H32.2497V5.92852H27.3734V0H27.0928C25.549 3.05199 23.0583 5.50788 19.4451 6.94585V7.29677H21.9358V12.3486H20.0063V12.3539H8.17408V10.2489C8.17408 7.37239 9.0514 6.46022 10.4894 6.46022C12.2085 6.46022 12.9098 8.1091 12.4189 11.3366L12.6646 11.4766L15.7166 7.05632C14.5941 5.93383 12.4892 5.02166 10.2442 5.02166C5.8588 5.02166 3.15774 7.30209 2.91197 12.3539H0V13.7221H2.87712V26.4919C2.87712 28.0356 2.31587 28.5969 0.316069 29.7194V30H11.7525V29.7194C8.94624 28.5969 8.17408 28.0351 8.17408 26.4919V13.7221H21.9358V16.7688C21.9358 22.347 23.9705 24.592 33.0567 23.5746V23.294C28.2152 22.2418 27.3734 20.7678 27.3734 17.0843V17.0849Z" fill="#49475B"/>
<path d="M12.8502 24.0059C12.8502 21.9535 14.4607 20.343 16.5444 20.343C18.6281 20.343 20.2072 21.9535 20.2072 24.0059C20.2072 26.0583 18.5968 27.7001 16.5444 27.7001C14.492 27.7001 12.8502 26.0583 12.8502 24.0059Z" fill="#49475B"/>
</svg>
